<svg id="svgexport-7_19_" data-name="svgexport-7 (19)" xmlns="http://www.w3.org/2000/svg" width="32" height="32" viewBox="0 0 32 32">
  <g id="Group_3" data-name="Group 3">
    <g id="Group_2" data-name="Group 2">
      <path id="Path_68" data-name="Path 68" d="M28.25.063A3.75,3.75,0,0,0,27,7.347V21.5a8,8,0,0,1-15.982.53l5.805-7.982a1.254,1.254,0,0,0,.1-.167,11.752,11.752,0,0,0,2.7-7.612A12.106,12.106,0,0,0,18.708,1.6q-.03-.079-.066-.155l-.032-.075,0,0a2.5,2.5,0,1,0-1.573,3.538,10.052,10.052,0,0,1,.092,1.357c0,4.711-3.28,8.543-7.312,8.543S2.5,10.98,2.5,6.269a10.051,10.051,0,0,1,.092-1.357A2.5,2.5,0,1,0,1.018,1.374l0,0-.032.075Q.947,1.523.917,1.6A12.1,12.1,0,0,0,0,6.269a11.782,11.782,0,0,0,2.546,7.424c.021.036.044.071.068.1l5.894,8.1A10.5,10.5,0,0,0,29.5,21.5V7.347A3.75,3.75,0,0,0,28.25.063ZM8.151,17.156a8.893,8.893,0,0,0,3.32,0L9.812,19.438ZM28.25,5.063a1.25,1.25,0,1,1,1.25-1.25A1.251,1.251,0,0,1,28.25,5.063Z" fill="#F2CA2F"/>
    </g>
  </g>
</svg>
