<svg xmlns="http://www.w3.org/2000/svg" width="31.6" height="28.45" viewBox="0 0 31.6 28.45">
  <g id="svgexport-6_87_" data-name="svgexport-6 (87)" transform="translate(0 -25.518)">
    <g id="Group_12" data-name="Group 12" transform="translate(0 25.518)">
      <g id="Group_11" data-name="Group 11">
        <g id="Group_10" data-name="Group 10">
          <path id="Path_73" data-name="Path 73" d="M172.789,206.018H170.32v4.32H166v2.469h4.32v4.32h2.469v-4.32h4.32v-2.469h-4.32Z" transform="translate(-155.755 -194.878)" fill="#F2CA2F"/>
          <path id="Path_74" data-name="Path 74" d="M27.9,30.455H21.35V29.221a3.707,3.707,0,0,0-3.7-3.7H13.953a3.707,3.707,0,0,0-3.7,3.7v1.234H3.7a3.707,3.707,0,0,0-3.7,3.7V50.265a3.707,3.707,0,0,0,3.7,3.7H27.9a3.707,3.707,0,0,0,3.7-3.7V34.159A3.707,3.707,0,0,0,27.9,30.455ZM12.719,29.221a1.236,1.236,0,0,1,1.234-1.234h3.694a1.236,1.236,0,0,1,1.234,1.234v1.234H12.719ZM29.131,40.979H23.823v2.469h5.308v6.818A1.236,1.236,0,0,1,27.9,51.5H3.7a1.236,1.236,0,0,1-1.234-1.234V43.447H7.777V40.979H2.469v-6.82A1.236,1.236,0,0,1,3.7,32.924H27.9a1.236,1.236,0,0,1,1.234,1.234Z" transform="translate(0 -25.518)" fill="#F2CA2F"/>
        </g>
      </g>
    </g>
  </g>
</svg>
