<svg id="svgexport-6_85_" data-name="svgexport-6 (85)" xmlns="http://www.w3.org/2000/svg" width="31.2" height="31.2" viewBox="0 0 31.2 31.2">
  <g id="Group_6" data-name="Group 6">
    <g id="Group_5" data-name="Group 5">
      <g id="Group_4" data-name="Group 4">
        <path id="Path_69" data-name="Path 69" d="M27.544,111.714H14.33a3.662,3.662,0,0,0-3.6-3.047H3.656a3.639,3.639,0,0,0-1.219.21V103H0v24.923H2.438v-3.412H28.763v3.412H31.2V115.37A3.66,3.66,0,0,0,27.544,111.714Zm-15.6,10.359H2.438v-5.484h9.506Zm0-7.922H2.438v-1.828A1.22,1.22,0,0,1,3.656,111.1h7.069a1.22,1.22,0,0,1,1.219,1.219Zm16.819,7.922H14.381v-7.922H27.544a1.22,1.22,0,0,1,1.219,1.219Z" transform="translate(0 -96.723)" fill="#F2CA2F"/>
        <path id="Path_70" data-name="Path 70" d="M338.7,4.266V0h-2.437V4.266H332V6.7h4.266v4.266H338.7V6.7h4.266V4.266Z" transform="translate(-311.769)" fill="#F2CA2F"/>
      </g>
    </g>
  </g>
</svg>
