<svg id="svgexport-6_86_" data-name="svgexport-6 (86)" xmlns="http://www.w3.org/2000/svg" width="30.2" height="30.2" viewBox="0 0 30.2 30.2">
  <g id="Group_9" data-name="Group 9">
    <g id="Group_8" data-name="Group 8">
      <g id="Group_7" data-name="Group 7">
        <rect id="Rectangle_21" data-name="Rectangle 21" width="2.254" height="3.005" transform="translate(14.274 18.18)" fill="#F2CA2F"/>
        <rect id="Rectangle_22" data-name="Rectangle 22" width="2.254" height="1.502" transform="translate(9.015 13.673)" fill="#F2CA2F"/>
        <rect id="Rectangle_23" data-name="Rectangle 23" width="2.254" height="3.005" transform="translate(9.015 18.18)" fill="#F2CA2F"/>
        <path id="Path_71" data-name="Path 71" d="M203.078,72.359h-2.359V70h-2.359v2.359H196v2.359h2.359v2.359h2.359V74.719h2.359Z" transform="translate(-184.439 -65.871)" fill="#F2CA2F"/>
        <path id="Path_72" data-name="Path 72" d="M26.661,6.488h-.944V3.539A3.543,3.543,0,0,0,22.178,0H8.022A3.543,3.543,0,0,0,4.483,3.539V6.488H3.539A3.543,3.543,0,0,0,0,10.027V30.2H12.741V25.363h4.719V30.2H30.2V10.027A3.543,3.543,0,0,0,26.661,6.488ZM4.483,27.841H2.359V10.027a1.181,1.181,0,0,1,1.18-1.18h.944Zm18.875,0H19.819V23H10.381v4.837H6.842V3.539a1.181,1.181,0,0,1,1.18-1.18H22.178a1.181,1.181,0,0,1,1.18,1.18Zm4.483,0H25.717V8.848h.944a1.181,1.181,0,0,1,1.18,1.18Z" fill="#F2CA2F"/>
        <rect id="Rectangle_24" data-name="Rectangle 24" width="3.005" height="1.502" transform="translate(18.03 13.673)" fill="#F2CA2F"/>
        <rect id="Rectangle_25" data-name="Rectangle 25" width="2.254" height="1.502" transform="translate(14.274 13.673)" fill="#F2CA2F"/>
        <rect id="Rectangle_26" data-name="Rectangle 26" width="3.005" height="3.005" transform="translate(18.03 18.18)" fill="#F2CA2F"/>
      </g>
    </g>
  </g>
</svg>
