<svg width="58" height="61" viewBox="0 0 58 61" fill="none" xmlns="http://www.w3.org/2000/svg">
<g clip-path="url(#clip0_4_2)">
<path d="M55.651 60.334H1.918C1.66592 60.3343 1.41626 60.2848 1.18332 60.1885C0.950377 60.0921 0.738723 59.9508 0.560475 59.7725C0.382227 59.5943 0.240885 59.3826 0.144539 59.1497C0.0481936 58.9167 -0.00126323 58.6671 -0.0010001 58.415V54.578C-0.00237346 50.4267 1.11889 46.3523 3.24406 42.7863C5.36922 39.2202 8.41919 36.2952 12.071 34.321C12.5183 34.0785 13.0436 34.0235 13.5314 34.1683C14.0192 34.3131 14.4295 34.6457 14.672 35.093C14.9145 35.5403 14.9695 36.0656 14.8247 36.5534C14.6799 37.0412 14.3473 37.4515 13.9 37.694C10.8563 39.3395 8.31421 41.7775 6.5429 44.7498C4.77158 47.722 3.83696 51.1179 3.838 54.578V56.497H53.727V54.578C53.7307 51.0859 52.7802 47.6592 50.9781 44.668C49.1761 41.6768 46.5909 39.2349 43.502 37.606C43.0592 37.3641 42.7294 36.9576 42.5841 36.4744C42.4388 35.9912 42.4897 35.4702 42.7257 35.0242C42.9617 34.5783 43.3639 34.2432 43.8451 34.0915C44.3263 33.9399 44.848 33.9839 45.297 34.214C49.0029 36.1689 52.1045 39.0989 54.2667 42.6878C56.429 46.2767 57.5698 50.3881 57.566 54.578V58.415C57.5663 58.6671 57.5168 58.9167 57.4205 59.1497C57.3241 59.3826 57.1828 59.5943 57.0045 59.7725C56.8263 59.9508 56.6146 60.0921 56.3817 60.1885C56.1487 60.2848 55.8991 60.3343 55.647 60.334H55.651Z" fill="#192442"/>
<path d="M43.471 0.571999C41.1962 -0.13577 38.7614 -0.145523 36.481 0.543999L32.553 1.644C30.0782 2.33561 27.463 2.34943 24.981 1.684L20.463 0.470999C18.6429 -0.060046 16.7207 -0.139335 14.863 0.239999C11.8956 0.893373 9.28058 2.63463 7.5334 5.12055C5.78622 7.60646 5.03364 10.6567 5.424 13.67C5.68029 15.7181 6.28287 17.7078 7.206 19.554L11.513 28.168C11.523 32.244 11.69 47.71 13.633 51.597C14.887 54.104 16.495 56.668 18.908 56.668C20.459 56.668 21.777 55.607 22.822 53.516C23.574 52.016 23.802 49.701 24.092 46.776C24.707 40.545 25.486 35.388 28.781 35.388C32.076 35.388 32.854 40.545 33.469 46.776C33.759 49.701 33.988 52.011 34.739 53.516C35.785 55.607 37.102 56.668 38.653 56.668C41.067 56.668 42.675 54.105 43.928 51.597C45.946 47.559 46.049 30.997 46.049 27.713C46.0373 27.6166 46.0179 27.5213 45.991 27.428L49.927 19.555C50.8509 17.7083 51.4539 15.7179 51.71 13.669C52.0537 10.8712 51.4217 8.04054 49.9208 5.65458C48.4198 3.26863 46.1418 1.47346 43.471 0.571999V0.571999ZM47.906 13.191C47.7038 14.8086 47.228 16.38 46.499 17.838L40.071 30.693C39.895 31.0098 39.8149 31.3709 39.8402 31.7324C39.8656 32.094 39.9954 32.4403 40.2139 32.7295C40.4324 33.0186 40.7302 33.2381 41.071 33.3612C41.4119 33.4843 41.7812 33.5058 42.134 33.423C41.954 40.205 41.457 47.963 40.498 49.882C40.0551 50.9043 39.4523 51.8494 38.712 52.682C38.5012 52.4078 38.3199 52.1122 38.171 51.8C37.6577 50.0427 37.3612 48.2293 37.288 46.4C36.668 40.134 35.819 31.552 28.779 31.552C21.739 31.552 20.894 40.134 20.271 46.4C20.1978 48.2293 19.9013 50.0427 19.388 51.8C19.2401 52.1117 19.0597 52.407 18.85 52.681C18.1102 51.8483 17.5076 50.9032 17.065 49.881C16.108 47.966 15.611 40.232 15.43 33.459C15.6994 33.451 15.964 33.3856 16.206 33.267C16.4315 33.1544 16.6326 32.9984 16.7979 32.808C16.9631 32.6177 17.0892 32.3966 17.169 32.1575C17.2487 31.9183 17.2806 31.6658 17.2628 31.4144C17.2449 31.1629 17.1777 30.9175 17.065 30.692L10.64 17.838C9.91088 16.3803 9.4351 14.8093 9.233 13.192C8.96458 11.1267 9.47956 9.03575 10.6764 7.33133C11.8733 5.62691 13.6652 4.43267 15.699 3.984C16.9522 3.74425 18.2448 3.81046 19.467 4.177L23.987 5.388C27.1336 6.23264 30.4495 6.21503 33.587 5.337L37.516 4.237C39.0583 3.76491 40.7052 3.75518 42.253 4.209C44.0847 4.82683 45.6472 6.05748 46.677 7.69337C47.7068 9.32927 48.1409 11.2703 47.906 13.189V13.191Z" fill="#C58828"/>
</g>
<defs>
<clipPath id="clip0_4_2">
<rect width="57.565" height="60.333" fill="white"/>
</clipPath>
</defs>
</svg>
