<svg width="66" height="60" viewBox="0 0 66 60" fill="none" xmlns="http://www.w3.org/2000/svg">
<g clip-path="url(#clip0_4_6)">
<path d="M37.375 37.377C37.375 38.2472 37.1169 39.0979 36.6335 39.8215C36.15 40.5451 35.4628 41.109 34.6588 41.4421C33.8548 41.7751 32.9701 41.8622 32.1166 41.6925C31.2631 41.5227 30.4791 41.1036 29.8637 40.4883C29.2484 39.8729 28.8293 39.0889 28.6595 38.2354C28.4898 37.3819 28.5769 36.4972 28.9099 35.6932C29.243 34.8892 29.8069 34.202 30.5305 33.7185C31.2541 33.2351 32.1048 32.977 32.975 32.977C34.142 32.977 35.2611 33.4406 36.0863 34.2657C36.9114 35.0909 37.375 36.2101 37.375 37.377Z" fill="#192442"/>
<path d="M32.978 43.971C31.6727 43.971 30.3966 43.5839 29.3113 42.8587C28.2259 42.1335 27.3799 41.1027 26.8804 39.8967C26.3809 38.6907 26.2502 37.3637 26.5048 36.0834C26.7595 34.8031 27.3881 33.6271 28.3111 32.7041C29.2341 31.7811 30.4101 31.1525 31.6904 30.8978C32.9707 30.6432 34.2977 30.7739 35.5037 31.2734C36.7097 31.7729 37.7405 32.6189 38.4657 33.7042C39.1909 34.7896 39.578 36.0657 39.578 37.371C39.578 39.1214 38.8827 40.8002 37.6449 42.0379C36.4072 43.2756 34.7284 43.971 32.978 43.971ZM32.978 35.177C32.5429 35.177 32.1175 35.306 31.7558 35.5478C31.394 35.7895 31.112 36.1331 30.9455 36.5351C30.779 36.9371 30.7354 37.3794 30.8203 37.8062C30.9052 38.233 31.1147 38.625 31.4224 38.9326C31.7301 39.2403 32.1221 39.4498 32.5488 39.5347C32.9756 39.6196 33.4179 39.576 33.8199 39.4095C34.2219 39.243 34.5655 38.9611 34.8072 38.5993C35.049 38.2375 35.178 37.8121 35.178 37.377C35.178 36.7935 34.9462 36.234 34.5336 35.8214C34.1211 35.4088 33.5615 35.177 32.978 35.177Z" fill="#C58828"/>
<path d="M28.8 37.91C28.7896 34.293 29.0494 30.6803 29.577 27.102C30.0503 23.5735 30.833 20.0934 31.916 16.702C32.9471 13.2946 34.4626 10.0531 36.416 7.077C38.3452 4.15851 40.9331 1.73405 43.971 -0.000999451C41.4866 2.22429 39.5622 5.00423 38.354 8.113C37.1897 11.1607 36.4706 14.3602 36.219 17.613C35.9155 20.8548 35.8981 24.1171 36.167 27.362C36.3891 30.551 36.8443 33.7195 37.529 36.842L37.536 36.872C37.7969 38.0136 37.5946 39.2121 36.9734 40.2048C36.3523 41.1976 35.3629 41.9036 34.2222 42.1683C33.0814 42.4329 31.8823 42.2346 30.8875 41.6167C29.8927 40.9989 29.1834 40.0119 28.915 38.872C28.8435 38.5562 28.8053 38.2338 28.801 37.91H28.8Z" fill="#C58828"/>
<path d="M63.757 59.36C63.4681 59.36 63.182 59.3031 62.9151 59.1925C62.6482 59.082 62.4057 58.9199 62.2014 58.7156C61.9971 58.5113 61.835 58.2688 61.7245 58.0019C61.6139 57.735 61.557 57.4489 61.557 57.16V28.58C61.557 27.9965 61.3252 27.4369 60.9126 27.0244C60.5001 26.6118 59.9405 26.38 59.357 26.38H41.772V27.593C43.4037 29.0622 44.6422 30.916 45.3749 32.9858C46.1076 35.0556 46.3113 37.2758 45.9675 39.4444C45.6236 41.613 44.7431 43.6612 43.406 45.4028C42.0689 47.1444 40.3177 48.5241 38.3115 49.4165C36.3054 50.3089 34.108 50.6857 31.9191 50.5125C29.7303 50.3393 27.6195 49.6217 25.7786 48.425C23.9377 47.2282 22.4252 45.5903 21.3787 43.6601C20.3321 41.7299 19.7846 39.5687 19.786 37.373C19.7837 35.5237 20.1749 33.6951 20.9335 32.0086C21.6921 30.322 22.8008 28.8162 24.186 27.591V26.38H6.58901C6.00816 26.3816 5.45165 26.6134 5.04149 27.0247C4.63133 27.436 4.40101 27.9932 4.40101 28.574V57.161C4.40101 57.7445 4.16922 58.304 3.75664 58.7166C3.34406 59.1292 2.78448 59.361 2.20101 59.361C1.61753 59.361 1.05795 59.1292 0.645372 58.7166C0.232792 58.304 0.00100708 57.7445 0.00100708 57.161L0.00100708 28.574C0.00391569 26.8274 0.699046 25.1531 1.93409 23.9181C3.16914 22.683 4.84339 21.9879 6.59001 21.985H26.382C26.9655 21.985 27.5251 22.2168 27.9376 22.6294C28.3502 23.0419 28.582 23.6015 28.582 24.185V28.631C28.5818 28.971 28.5027 29.3064 28.3511 29.6107C28.1994 29.915 27.9793 30.1801 27.708 30.385C26.2305 31.4914 25.1387 33.0348 24.5874 34.7964C24.036 36.5579 24.0531 38.4484 24.6362 40.1997C25.2192 41.951 26.3387 43.4744 27.8359 44.554C29.3331 45.6335 31.1322 46.2145 32.978 46.2145C34.8239 46.2145 36.6229 45.6335 38.1201 44.554C39.6173 43.4744 40.7368 41.951 41.3199 40.1997C41.9029 38.4484 41.92 36.5579 41.3686 34.7964C40.8173 33.0348 39.7255 31.4914 38.248 30.385C37.9771 30.1798 37.7573 29.9147 37.606 29.6104C37.4547 29.3061 37.376 28.9708 37.376 28.631V24.185C37.376 23.6015 37.6078 23.0419 38.0204 22.6294C38.433 22.2168 38.9925 21.985 39.576 21.985H59.36C61.1104 21.985 62.7892 22.6804 64.0269 23.9181C65.2646 25.1558 65.96 26.8346 65.96 28.585V57.166C65.96 57.7495 65.7282 58.3091 65.3156 58.7216C64.9031 59.1342 64.3435 59.366 63.76 59.366L63.757 59.36Z" fill="#192442"/>
<path d="M52.765 49.466C52.765 50.1187 52.5715 50.7567 52.2089 51.2994C51.8463 51.8421 51.3309 52.265 50.7279 52.5148C50.1249 52.7646 49.4614 52.8299 48.8212 52.7026C48.1811 52.5753 47.5931 52.261 47.1316 51.7995C46.67 51.3379 46.3558 50.7499 46.2284 50.1098C46.1011 49.4696 46.1664 48.8061 46.4162 48.2031C46.666 47.6001 47.0889 47.0848 47.6316 46.7222C48.1743 46.3595 48.8123 46.166 49.465 46.166C49.8984 46.166 50.3275 46.2513 50.7279 46.4172C51.1282 46.583 51.492 46.8261 51.7985 47.1326C52.1049 47.439 52.348 47.8028 52.5138 48.2031C52.6797 48.6035 52.765 49.0326 52.765 49.466V49.466Z" fill="#192442"/>
<path d="M59.361 42.871C59.361 43.5237 59.1675 44.1617 58.8049 44.7044C58.4422 45.2471 57.9269 45.67 57.3239 45.9198C56.7209 46.1696 56.0574 46.2349 55.4172 46.1076C54.7771 45.9803 54.1891 45.666 53.7276 45.2045C53.266 44.7429 52.9517 44.1549 52.8244 43.5148C52.6971 42.8747 52.7624 42.2111 53.0122 41.6081C53.262 41.0051 53.6849 40.4898 54.2276 40.1272C54.7703 39.7645 55.4083 39.571 56.061 39.571C56.9362 39.571 57.7756 39.9187 58.3945 40.5376C59.0133 41.1564 59.361 41.9958 59.361 42.871Z" fill="#192442"/>
<path d="M57.162 34.077C57.162 34.7297 56.9685 35.3677 56.6059 35.9104C56.2432 36.4531 55.7278 36.876 55.1248 37.1258C54.5218 37.3756 53.8583 37.4409 53.2182 37.3136C52.5781 37.1863 51.99 36.872 51.5285 36.4104C51.067 35.9489 50.7527 35.3609 50.6254 34.7208C50.4981 34.0807 50.5634 33.4171 50.8132 32.8141C51.063 32.2112 51.4859 31.6958 52.0286 31.3331C52.5713 30.9705 53.2093 30.777 53.862 30.777C54.7372 30.777 55.5766 31.1247 56.1955 31.7435C56.8143 32.3624 57.162 33.2018 57.162 34.077Z" fill="#192442"/>
<path d="M13.192 51.665C13.192 52.3177 12.9985 52.9557 12.6359 53.4984C12.2733 54.0411 11.7579 54.464 11.1549 54.7138C10.5519 54.9636 9.88835 55.0289 9.24821 54.9016C8.60808 54.7743 8.02007 54.46 7.55856 53.9985C7.09704 53.5369 6.78275 52.9489 6.65542 52.3088C6.52809 51.6687 6.59344 51.0051 6.84321 50.4021C7.09298 49.7992 7.51595 49.2838 8.05863 48.9212C8.60131 48.5586 9.23933 48.365 9.89201 48.365C10.7672 48.365 11.6066 48.7127 12.2255 49.3316C12.8443 49.9504 13.192 50.7898 13.192 51.665Z" fill="#192442"/>
<path d="M24.184 51.665C24.184 52.3177 23.9905 52.9557 23.6279 53.4984C23.2653 54.0411 22.7499 54.464 22.1469 54.7138C21.5439 54.9636 20.8804 55.0289 20.2402 54.9016C19.6001 54.7743 19.0121 54.46 18.5506 53.9985C18.089 53.5369 17.7748 52.9489 17.6474 52.3088C17.5201 51.6687 17.5854 51.0051 17.8352 50.4021C18.085 49.7992 18.508 49.2838 19.0506 48.9212C19.5933 48.5586 20.2313 48.365 20.884 48.365C21.7592 48.365 22.5986 48.7127 23.2175 49.3316C23.8363 49.9504 24.184 50.7898 24.184 51.665V51.665Z" fill="#192442"/>
<path d="M17.589 40.668C17.589 41.3207 17.3955 41.9587 17.0329 42.5014C16.6703 43.0441 16.1549 43.467 15.5519 43.7168C14.9489 43.9666 14.2854 44.0319 13.6452 43.9046C13.0051 43.7773 12.4171 43.463 11.9556 43.0014C11.494 42.5399 11.1798 41.9519 11.0524 41.3118C10.9251 40.6717 10.9904 40.0081 11.2402 39.4051C11.49 38.8022 11.9129 38.2868 12.4556 37.9241C12.9983 37.5615 13.6363 37.368 14.289 37.368C15.1642 37.368 16.0036 37.7157 16.6225 38.3345C17.2413 38.9534 17.589 39.7928 17.589 40.668Z" fill="#192442"/>
<path d="M13.192 31.878C13.192 32.5307 12.9985 33.1687 12.6359 33.7114C12.2733 34.2541 11.7579 34.677 11.1549 34.9268C10.5519 35.1766 9.88835 35.2419 9.24821 35.1146C8.60808 34.9873 8.02007 34.673 7.55856 34.2114C7.09704 33.7499 6.78275 33.1619 6.65542 32.5218C6.52809 31.8817 6.59344 31.2181 6.84321 30.6151C7.09298 30.0122 7.51595 29.4968 8.05863 29.1341C8.60131 28.7715 9.23933 28.578 9.89201 28.578C10.7672 28.578 11.6066 28.9257 12.2255 29.5445C12.8443 30.1634 13.192 31.0028 13.192 31.878V31.878Z" fill="#192442"/>
</g>
<defs>
<clipPath id="clip0_4_6">
<rect width="65.956" height="59.36" fill="white"/>
</clipPath>
</defs>
</svg>
