<svg width="70" height="38" viewBox="0 0 70 38" fill="none" xmlns="http://www.w3.org/2000/svg">
<g clip-path="url(#clip0_4_24)">
<path d="M69.485 17.646C64.305 7.418 49.743 0 34.86 0C19.977 0 5.41499 7.418 0.235994 17.646C0.0809317 17.9533 0.000152588 18.2928 0.000152588 18.637C0.000152588 18.9812 0.0809317 19.3207 0.235994 19.628C5.41599 29.852 19.978 37.274 34.86 37.274C46.626 37.274 58.76 32.717 65.053 25.939C65.4335 25.5105 65.6312 24.9501 65.6037 24.3778C65.5763 23.8054 65.3259 23.2665 64.9061 22.8764C64.4864 22.4863 63.9306 22.276 63.3577 22.2905C62.7849 22.305 62.2405 22.5432 61.841 22.954C58.941 26.075 54.428 28.686 49.263 30.454C51.9798 27.1571 53.4768 23.0242 53.5016 18.7522C53.5263 14.4801 52.0774 10.3302 49.399 7.002C56.755 9.696 62.852 14.25 65.575 19.628C65.7018 19.8906 65.8797 20.1252 66.0982 20.3183C66.3168 20.5113 66.5716 20.6588 66.8479 20.7522C67.1241 20.8456 67.4162 20.8831 67.707 20.8623C67.9979 20.8415 68.2817 20.7629 68.5418 20.6312C68.802 20.4995 69.0332 20.3172 69.2221 20.095C69.411 19.8729 69.5537 19.6153 69.6419 19.3374C69.7301 19.0594 69.762 18.7667 69.7357 18.4763C69.7095 18.1859 69.6256 17.9036 69.489 17.646H69.485ZM4.69299 18.637C7.63099 13.695 13.422 9.537 20.317 7.014C17.668 10.3087 16.2238 14.4094 16.2238 18.637C16.2238 22.8646 17.668 26.9653 20.317 30.26C13.423 27.733 7.63099 23.579 4.69299 18.637V18.637ZM49.111 18.637C49.1108 21.4555 48.2748 24.2107 46.7088 26.5542C45.1427 28.8976 42.917 30.724 40.3129 31.8025C37.7089 32.881 34.8435 33.163 32.0791 32.613C29.3148 32.0631 26.7756 30.7057 24.7827 28.7126C22.7897 26.7195 21.4325 24.1803 20.8828 21.4159C20.333 18.6515 20.6152 15.7861 21.6939 13.1821C22.7725 10.5782 24.5991 8.35253 26.9427 6.78666C29.2862 5.22078 32.0415 4.385 34.86 4.385C38.6386 4.38924 42.2612 5.89214 44.933 8.56399C47.6049 11.2358 49.1078 14.8584 49.112 18.637H49.111Z" fill="#192442"/>
<path d="M34.86 9.86599C33.787 9.87108 32.7241 10.0745 31.725 10.466C32.3498 11.251 32.6846 12.2276 32.6727 13.2308C32.6609 14.2341 32.3032 15.2025 31.66 15.9725C31.0168 16.7426 30.1275 17.267 29.1424 17.4573C28.1573 17.6476 27.1367 17.4921 26.253 17.017C25.9221 18.7888 26.1455 20.6195 26.8929 22.2597C27.6403 23.8998 28.8753 25.2696 30.4295 26.1824C31.9838 27.0951 33.7816 27.5064 35.5781 27.3601C37.3746 27.2138 39.0823 26.5172 40.4684 25.365C41.8545 24.2129 42.8517 22.6614 43.3239 20.9219C43.7961 19.1825 43.7205 17.3397 43.1073 15.6448C42.4941 13.9499 41.3732 12.4853 39.8973 11.4506C38.4215 10.4159 36.6624 9.86155 34.86 9.86299V9.86599Z" fill="#C58828"/>
</g>
<defs>
<clipPath id="clip0_4_24">
<rect width="69.721" height="37.274" fill="white"/>
</clipPath>
</defs>
</svg>
