<svg width="67" height="62" viewBox="0 0 67 62" fill="none" xmlns="http://www.w3.org/2000/svg">
<g clip-path="url(#clip0_6_10)">
<path d="M66.019 20.556C64.553 11.524 56.774 1.161 47.53 0.126999C44.6 -0.210466 41.6318 0.0753374 38.82 0.965662C36.0082 1.85599 33.4164 3.33072 31.2147 5.29311C29.0129 7.2555 27.2509 9.66122 26.0442 12.3525C24.8376 15.0437 24.2135 17.9596 24.213 20.909C24.213 21.4925 24.4448 22.0521 24.8574 22.4646C25.2699 22.8772 25.8295 23.109 26.413 23.109C26.9965 23.109 27.556 22.8772 27.9686 22.4646C28.3812 22.0521 28.613 21.4925 28.613 20.909C28.6139 18.5797 29.1076 16.2769 30.0614 14.1518C31.0153 12.0267 32.4079 10.1275 34.1477 8.57868C35.8876 7.02989 37.9353 5.86662 40.1565 5.16523C42.3778 4.46384 44.7222 4.2402 47.036 4.509C53.979 5.285 60.485 13.995 61.665 21.266C62.765 28.077 59.565 31.48 53.654 35.056C53.2739 35.2854 52.9722 35.6244 52.7883 36.0285C52.6045 36.4325 52.5472 36.8828 52.624 37.32L53.256 40.92C53.6634 43.2624 53.4405 45.671 52.6102 47.8988C51.7799 50.1266 50.3721 52.0936 48.531 53.598L47.918 54.098C45.5258 56.0458 42.5359 57.1108 39.451 57.114C38.5512 57.1125 37.6675 56.8748 36.8883 56.4247C36.1091 55.9746 35.4618 55.3278 35.011 54.549L31.13 47.817C30.8383 47.3112 30.3576 46.9421 29.7936 46.7907C29.2297 46.6394 28.6288 46.7183 28.123 47.01C27.6172 47.3017 27.2481 47.7824 27.0967 48.3464C26.9454 48.9103 27.0243 49.5112 27.316 50.017L31.197 56.749C32.0342 58.1977 33.2374 59.4009 34.686 60.2383C36.1346 61.0756 37.7778 61.5176 39.451 61.52C43.5516 61.5156 47.5255 60.0988 50.704 57.508L51.319 57.008C53.7646 55.0087 55.6346 52.3952 56.7374 49.4351C57.8403 46.4751 58.1362 43.2751 57.595 40.163L57.219 38.02C62.837 34.394 67.481 29.613 66.012 20.56L66.019 20.556Z" fill="#192442"/>
<path d="M54.344 25.197C54.6181 25.2885 54.9076 25.3252 55.1959 25.3048C55.4842 25.2845 55.7657 25.2075 56.0242 25.0783C56.2827 24.9491 56.5133 24.7703 56.7027 24.552C56.8921 24.3337 57.0366 24.0802 57.128 23.806C57.6641 22.2212 57.8057 20.5295 57.5405 18.8776C57.2753 17.2257 56.6113 15.6634 55.606 14.326C54.3912 12.6737 52.8179 11.3181 51.0042 10.3608C49.1905 9.40358 47.1836 8.86961 45.134 8.799C41.9233 8.80218 38.8449 10.0789 36.5744 12.349C34.3039 14.6192 33.0267 17.6973 33.023 20.908V38.521C33.023 39.1045 33.2548 39.6641 33.6674 40.0766C34.0799 40.4892 34.6395 40.721 35.223 40.721C35.8065 40.721 36.3661 40.4892 36.7786 40.0766C37.1912 39.6641 37.423 39.1045 37.423 38.521V31.921H39.623C41.1471 31.9216 42.6241 32.4491 43.8037 33.4142C44.9833 34.3793 45.7929 35.7226 46.0953 37.2164C46.3977 38.7101 46.1742 40.2625 45.4629 41.6104C44.7515 42.9583 43.5959 44.0187 42.192 44.612C41.926 44.725 41.6849 44.8893 41.4824 45.0955C41.2799 45.3017 41.12 45.5457 41.0118 45.8137C40.9036 46.0817 40.8493 46.3684 40.8519 46.6574C40.8545 46.9464 40.914 47.232 41.027 47.498C41.14 47.764 41.3043 48.0051 41.5105 48.2076C41.7167 48.4101 41.9607 48.57 42.2287 48.6782C42.4967 48.7864 42.7834 48.8407 43.0724 48.8381C43.3614 48.8355 43.647 48.776 43.913 48.663C46.2524 47.674 48.1778 45.9065 49.3629 43.6601C50.5481 41.4137 50.9201 38.8267 50.4159 36.3374C49.9116 33.8481 48.5622 31.6097 46.5962 30.0016C44.6303 28.3936 42.1688 27.5147 39.629 27.514H37.429V20.914C37.4316 18.8711 38.2444 16.9127 39.689 15.4683C41.1336 14.0239 43.0921 13.2114 45.135 13.209C46.4879 13.2738 47.8093 13.6396 49.0029 14.2797C50.1966 14.9197 51.2324 15.818 52.035 16.909C52.628 17.6822 53.0221 18.5891 53.1825 19.5503C53.3429 20.5114 53.2648 21.4972 52.955 22.421C52.8633 22.6952 52.8265 22.9848 52.8468 23.2732C52.8671 23.5616 52.944 23.8432 53.0732 24.1018C53.2024 24.3605 53.3813 24.5911 53.5997 24.7806C53.8181 24.9701 54.0717 25.1146 54.346 25.206L54.344 25.197Z" fill="#192442"/>
<path d="M17.611 51.555C17.2242 51.5545 16.8445 51.4509 16.511 51.255C13.4999 49.5195 10.9991 47.0214 9.26033 44.0122C7.52152 41.003 6.60604 37.5889 6.60604 34.1135C6.60604 30.6381 7.52152 27.224 9.26033 24.2148C10.9991 21.2056 13.4999 18.7075 16.511 16.972C16.7611 16.8272 17.0373 16.733 17.3238 16.6949C17.6103 16.6568 17.9015 16.6755 18.1807 16.7499C18.46 16.8243 18.7219 16.953 18.9514 17.1286C19.181 17.3043 19.3737 17.5234 19.5185 17.7735C19.6633 18.0236 19.7575 18.2998 19.7956 18.5863C19.8337 18.8728 19.815 19.164 19.7406 19.4432C19.6662 19.7225 19.5375 19.9844 19.3619 20.2139C19.1862 20.4435 18.9671 20.6362 18.717 20.781C16.3741 22.13 14.428 24.0726 13.0749 26.4131C11.7217 28.7537 11.0093 31.4095 11.0093 34.113C11.0093 36.8165 11.7217 39.4723 13.0749 41.8129C14.428 44.1534 16.3741 46.096 18.717 47.445C19.1372 47.6872 19.4655 48.0614 19.651 48.5095C19.8365 48.9576 19.8688 49.4544 19.7427 49.9227C19.6167 50.391 19.3395 50.8046 18.9541 51.099C18.5688 51.3935 18.097 51.5524 17.612 51.551L17.611 51.555Z" fill="#C58828"/>
<path d="M19.812 45.076C19.3338 45.077 18.8685 44.9207 18.488 44.631C16.8499 43.411 15.5195 41.825 14.603 39.9996C13.6865 38.1743 13.2092 36.16 13.2092 34.1175C13.2092 32.075 13.6865 30.0607 14.603 28.2353C15.5195 26.41 16.8499 24.824 18.488 23.604C18.9538 23.2522 19.5404 23.0998 20.1186 23.1805C20.6967 23.2611 21.2192 23.5681 21.571 24.034C21.9228 24.4998 22.0752 25.0864 21.9945 25.6645C21.9139 26.2427 21.6068 26.7652 21.141 27.117C20.0468 27.9269 19.1578 28.982 18.5451 30.1977C17.9325 31.4133 17.6134 32.7557 17.6134 34.117C17.6134 35.4783 17.9325 36.8206 18.5451 38.0363C19.1578 39.252 20.0468 40.3071 21.141 41.117C21.5102 41.3947 21.7826 41.7817 21.9195 42.2229C22.0564 42.6642 22.051 43.1373 21.9039 43.5753C21.7569 44.0133 21.4757 44.3938 21.1002 44.663C20.7247 44.9322 20.274 45.0763 19.812 45.075V45.076Z" fill="#C58828"/>
<path d="M15.407 57.894C15.0593 57.8938 14.7166 57.8112 14.407 57.653C10.0119 55.408 6.33328 51.9773 3.78758 47.7494C1.24188 43.5214 -0.0691433 38.6651 0.0029817 33.7304C0.0751067 28.7957 1.52749 23.9798 4.19567 19.8281C6.86385 15.6763 10.6412 12.3545 15.1 10.239C15.6275 9.98864 16.2329 9.95808 16.7829 10.1541C17.333 10.35 17.7826 10.7565 18.033 11.284C18.2834 11.8115 18.3139 12.4169 18.1179 12.9669C17.922 13.517 17.5155 13.9666 16.988 14.217C13.2718 15.98 10.1235 18.7483 7.89973 22.2086C5.67595 25.6688 4.46554 29.6825 4.40559 33.7953C4.34564 37.908 5.43854 41.9554 7.56052 45.479C9.6825 49.0025 12.7488 51.8615 16.412 53.732C16.8534 53.9559 17.2064 54.3221 17.4139 54.7713C17.6215 55.2206 17.6715 55.7268 17.5559 56.208C17.4402 56.6892 17.1657 57.1174 16.7767 57.4233C16.3877 57.7292 15.9069 57.8951 15.412 57.894H15.407Z" fill="#C58828"/>
</g>
<defs>
<clipPath id="clip0_6_10">
<rect width="66.294" height="61.52" fill="white"/>
</clipPath>
</defs>
</svg>
