<svg xmlns="http://www.w3.org/2000/svg" width="62" height="62.002" viewBox="0 0 62 62.002">
  <g id="svgexport-6_91_" data-name="svgexport-6 (91)" transform="translate(-1 -0.998)">
    <path id="Path_4" data-name="Path 4" d="M60,31H41.3l-8.748-5.832A1,1,0,0,0,31,26v5H28a3,3,0,0,0-3,3V60a3,3,0,0,0,3,3H60a3,3,0,0,0,3-3V34a3,3,0,0,0-3-3ZM49,57H39a5.006,5.006,0,0,1-5-5,1,1,0,0,1,1-1H53a1,1,0,0,1,1,1,5.006,5.006,0,0,1-5,5Zm4-8.36c-1.957,0-2.137.721-4.5.721-2.29,0-2.59-.721-4.5-.721-1.955,0-2.136.721-4.5.721-2.284,0-2.589-.721-4.5-.721a1,1,0,0,1,0-2c2.284,0,2.6.721,4.5.721,1.955,0,2.136-.721,4.5-.721,2.29,0,2.59.721,4.5.721,1.978,0,2.118-.721,4.5-.721a1,1,0,0,1,0,2ZM53,45H35a1,1,0,0,1-1-1,7.008,7.008,0,0,1,7-7h6a7.008,7.008,0,0,1,7,7,1,1,0,0,1-1,1Z" fill="#c58828"/>
    <g id="Group_1" data-name="Group 1">
      <path id="Path_5" data-name="Path 5" d="M29.979,1.8a1,1,0,1,0-1.96.4A7.156,7.156,0,0,0,35,8c7.959,0,12.589,2.788,13.265,11.691-1.752-.614-3.776-.345-6.507.338-4.017,1-4.7,1.88-8.311.076a8.041,8.041,0,0,0-6.273-.3C32.22,8.061,20.619,1.2,20.5,1.133a1,1,0,1,0-1,1.733c.433.25,10.544,6.262,5.6,16.706C21.267,27.658,16.3,29.7,11.922,31.5,6.062,33.905,1,35.985,1,50a1,1,0,0,0,2,0c0-12.675,4.062-14.343,9.683-16.653,4.055-1.666,9.005-3.719,12.994-10.6.513-.353,3.737-2.422,6.876-.851,4.3,2.147,5.549,1.112,9.689.076,3.26-.814,4.807-.834,6.1-.026a40.912,40.912,0,0,1-.335,4.932C46.121,41.973,37.058,46,32,46c-6.414,0-9.144-2.98-11.553-5.609-1.872-2.044-3.639-3.977-6.644-3.371C7.773,38.226,7,44.59,7,50a1,1,0,0,0,2,0c0-7.089,1.506-10.281,5.2-11.02,1.813-.36,2.886.7,4.776,2.761C21.393,44.383,24.706,48,32,48c5.32,0,15.928-4.363,17.992-20.876C51.659,13.794,47.838,6,35,6c-4.1,0-4.983-4.023-5.021-4.2Z" fill="#192442"/>
      <circle id="Ellipse_8" data-name="Ellipse 8" cx="1.25" cy="1.25" r="1.25" transform="translate(30.27 39.194)" fill="#192442"/>
      <circle id="Ellipse_9" data-name="Ellipse 9" cx="1.25" cy="1.25" r="1.25" transform="translate(41 26)" fill="#192442"/>
      <circle id="Ellipse_10" data-name="Ellipse 10" cx="1.25" cy="1.25" r="1.25" transform="translate(28.673 26)" fill="#192442"/>
      <circle id="Ellipse_11" data-name="Ellipse 11" cx="1.25" cy="1.25" r="1.25" transform="translate(31.833 31.499)" fill="#192442"/>
      <circle id="Ellipse_12" data-name="Ellipse 12" cx="1.25" cy="1.25" r="1.25" transform="translate(39.132 33.194)" fill="#192442"/>
      <circle id="Ellipse_13" data-name="Ellipse 13" cx="1.25" cy="1.25" r="1.25" transform="translate(23.323 33.194)" fill="#192442"/>
    </g>
  </g>
</svg>
