<svg xmlns="http://www.w3.org/2000/svg" width="60" height="62" viewBox="0 0 60 62">
  <g id="svgexport-6_90_" data-name="svgexport-6 (90)" transform="translate(-2 -1)">
    <path id="Path_1" data-name="Path 1" d="M39.013,42.551a9.5,9.5,0,0,0,6.513-2.574,9.519,9.519,0,1,0,9.218-15.744V14a1,1,0,0,0-1-1h-16a1,1,0,0,0-1,1v9.784a9.52,9.52,0,0,0,2.27,18.767Z" fill="#c58828"/>
    <path id="Path_2" data-name="Path 2" d="M52.474,45a11.554,11.554,0,0,1-7.031-2.406A11.508,11.508,0,0,1,29.932,40.1a9.486,9.486,0,0,0-.446,2.875,9.584,9.584,0,0,0,7.257,9.242V62a1,1,0,0,0,1,1h16a1,1,0,0,0,1-1V51.768A9.584,9.584,0,0,0,62,42.525a9.486,9.486,0,0,0-.27-2.212A11.505,11.505,0,0,1,52.474,45Z" fill="#c58828"/>
    <path id="Path_3" data-name="Path 3" d="M48.961,8.364a1,1,0,0,0-1.414,0l-7.777,7.778a1,1,0,0,0,0,1.414,6,6,0,1,1-8.485,8.485,5.931,5.931,0,0,1-1.69-3.407,7.947,7.947,0,0,0,4.518-2.249A1,1,0,1,0,32.7,18.971a6,6,0,1,1,0-8.485,1,1,0,0,0,1.414,0l7.778-7.778a1,1,0,1,0-1.414-1.414l-3.4,3.4A22.98,22.98,0,0,0,5.695,36.075l-3.4,3.4a1,1,0,1,0,1.414,1.414l7.777-7.778a1,1,0,0,0,0-1.414,6,6,0,1,1,8.485,0,1,1,0,0,0,1.414,1.414,7.929,7.929,0,0,0,2.254-4.518,5.937,5.937,0,0,1,3.4,1.69,6,6,0,1,1-8.485,8.486,1,1,0,0,0-1.414,0L9.363,46.547a1,1,0,1,0,1.414,1.414l3.4-3.4A22.984,22.984,0,0,0,45.559,13.181l3.4-3.4a1,1,0,0,0,0-1.414ZM40.477,39.477a20.887,20.887,0,0,1-24.831,3.616l2.246-2.245A8,8,0,1,0,23.677,26.58a8,8,0,1,0-14.27,5.781L7.161,34.609A20.987,20.987,0,0,1,35.608,6.162L33.362,8.408a8,8,0,1,0-5.78,14.265,8,8,0,1,0,14.265-5.779l2.246-2.246a20.885,20.885,0,0,1-3.616,24.83Z" fill="#192442"/>
  </g>
</svg>
